#Comment line ignore any data following # character 
#Hierarchical Translation and Rotation (.htr) file 
[Header]	
#Header keywords are followed by a single value 
FileType HTR		#Single word string
DataType HTRS		#Translation followed by rotation and scale data
FileVersion 1		#integer
NumSegments 64		#integer
NumFrames 3		#integer
DataFrameRate 30		#integer, data frame rate in this file
EulerRotationOrder ZYX
CalibrationUnits mm
RotationUnits Degrees
GlobalAxisofGravity Y
BoneLengthAxis Y
ScaleFactor 1.00
[SegmentNames&Hierarchy]
#CHILD	PARENT
Pinger_Root GLOBAL
Pelvis Pinger_Root
L_Hip Pelvis
R_Hip Pelvis
Rear_Leg01 Pelvis
Spine1 Pelvis
L_Leg01 L_Hip
L_Leg02 L_Leg01
L_Leg03 L_Leg02
L_Foot L_Leg03
L_Toe1_01 L_Foot
L_Toe2_01 L_Foot
L_Toe3_01 L_Foot
planeAlignerLeft L_Foot
L_Toe1_02 L_Toe1_01
L_Toe1_03 L_Toe1_02
L_Toe2_02 L_Toe2_01
L_Toe2_03 L_Toe2_02
L_Toe3_02 L_Toe3_01
L_Toe3_03 L_Toe3_02
planeLockWeightLeft planeAlignerLeft
R_Leg01 R_Hip
R_Leg02 R_Leg01
R_Leg03 R_Leg02
R_Foot R_Leg03
planeAlignerRight R_Foot
R_Toe1_01 R_Foot
R_Toe2_01 R_Foot
R_Toe3_01 R_Foot
planeLockWeightRight planeAlignerRight
R_Toe1_02 R_Toe1_01
R_Toe1_03 R_Toe1_02
R_Toe2_02 R_Toe2_01
R_Toe2_03 R_Toe2_02
R_Toe3_02 R_Toe3_01
R_Toe3_03 R_Toe3_02
Rear_Leg02 Rear_Leg01
Rear_Leg03 Rear_Leg02
Rear_Leg04 Rear_Leg03
Rear_Foot Rear_Leg04
planeAlignerCenter Rear_Foot
Rear_Toe1_01 Rear_Foot
Rear_Toe2_01 Rear_Foot
Rear_Toe3_01 Rear_Foot
planeLockWeightCenter planeAlignerCenter
Rear_Toe1_02 Rear_Toe1_01
Rear_Toe1_03 Rear_Toe1_02
Rear_Toe2_02 Rear_Toe2_01
Rear_Toe2_03 Rear_Toe2_02
Rear_Toe3_02 Rear_Toe3_01
Rear_Toe3_03 Rear_Toe3_02
Back_Bone Spine1
Head Spine1
Motor_Bone Back_Bone
Ping_Mechanism Back_Bone
BN_LookIK Head
bottomMouth Head
L_Mouth01 Head
L_mouthFront Head
mouthGun Head
R_Mouth01 Head
R_mouthFront Head
TopMouth Head
weapon_bone Head
[BasePosition]
#SegmentName Tx, Ty, Tz, Rx, Ry, Rz, BoneLength
Pinger_Root 0.000000 0.000000 0.000000 -90.000000 0.000000 0.000000 10.000000 
Pelvis 0.000000 0.000000 0.000000 0.000000 0.000000 0.000000 10.000000 
L_Hip 0.000000 0.000000 0.000000 0.000000 0.000000 0.000000 10.000000 
R_Hip 0.000000 0.000000 0.000000 0.000000 0.000000 0.000000 10.000000 
Rear_Leg01 0.000000 0.000000 0.000000 0.000000 0.000000 0.000000 10.000000 
Spine1 0.000000 0.000000 0.000000 0.000000 0.000000 0.000000 10.000000 
L_Leg01 0.000000 0.000000 0.000000 0.000000 0.000000 0.000000 10.000000 
L_Leg02 0.000000 0.000000 0.000000 0.000000 0.000000 0.000000 10.000000 
L_Leg03 0.000000 0.000000 0.000000 0.000000 0.000000 0.000000 10.000000 
L_Foot 0.000000 0.000000 0.000000 0.000000 0.000000 0.000000 10.000000 
L_Toe1_01 0.000000 0.000000 0.000000 0.000000 0.000000 0.000000 10.000000 
L_Toe2_01 0.000000 0.000000 0.000000 0.000000 0.000000 0.000000 10.000000 
L_Toe3_01 0.000000 0.000000 0.000000 0.000000 0.000000 0.000000 10.000000 
planeAlignerLeft 0.000000 0.000000 0.000000 0.000000 0.000000 0.000000 10.000000 
L_Toe1_02 0.000000 0.000000 0.000000 0.000000 0.000000 0.000000 10.000000 
L_Toe1_03 0.000000 0.000000 0.000000 0.000000 0.000000 0.000000 10.000000 
L_Toe2_02 0.000000 0.000000 0.000000 0.000000 0.000000 0.000000 10.000000 
L_Toe2_03 0.000000 0.000000 0.000000 0.000000 0.000000 0.000000 10.000000 
L_Toe3_02 0.000000 0.000000 0.000000 0.000000 0.000000 0.000000 10.000000 
L_Toe3_03 0.000000 0.000000 0.000000 0.000000 0.000000 0.000000 10.000000 
planeLockWeightLeft 0.000000 0.000000 0.000000 0.000000 0.000000 0.000000 10.000000 
R_Leg01 0.000000 0.000000 0.000000 0.000000 0.000000 0.000000 10.000000 
R_Leg02 0.000000 0.000000 0.000000 0.000000 0.000000 0.000000 10.000000 
R_Leg03 0.000000 0.000000 0.000000 0.000000 0.000000 0.000000 10.000000 
R_Foot 0.000000 0.000000 0.000000 0.000000 0.000000 0.000000 10.000000 
planeAlignerRight 0.000000 0.000000 0.000000 0.000000 0.000000 0.000000 10.000000 
R_Toe1_01 0.000000 0.000000 0.000000 0.000000 0.000000 0.000000 10.000000 
R_Toe2_01 0.000000 0.000000 0.000000 0.000000 0.000000 0.000000 10.000000 
R_Toe3_01 0.000000 0.000000 0.000000 0.000000 0.000000 0.000000 10.000000 
planeLockWeightRight 0.000000 0.000000 0.000000 0.000000 0.000000 0.000000 10.000000 
R_Toe1_02 0.000000 0.000000 0.000000 0.000000 0.000000 0.000000 10.000000 
R_Toe1_03 0.000000 0.000000 0.000000 0.000000 0.000000 0.000000 10.000000 
R_Toe2_02 0.000000 0.000000 0.000000 0.000000 0.000000 0.000000 10.000000 
R_Toe2_03 0.000000 0.000000 0.000000 0.000000 0.000000 0.000000 10.000000 
R_Toe3_02 0.000000 0.000000 0.000000 0.000000 0.000000 0.000000 10.000000 
R_Toe3_03 0.000000 0.000000 0.000000 0.000000 0.000000 0.000000 10.000000 
Rear_Leg02 0.000000 0.000000 0.000000 0.000000 0.000000 0.000000 10.000000 
Rear_Leg03 0.000000 0.000000 0.000000 0.000000 0.000000 0.000000 10.000000 
Rear_Leg04 0.000000 0.000000 0.000000 0.000000 0.000000 0.000000 10.000000 
Rear_Foot 0.000000 0.000000 0.000000 0.000000 0.000000 0.000000 10.000000 
planeAlignerCenter 0.000000 0.000000 0.000000 0.000000 0.000000 0.000000 10.000000 
Rear_Toe1_01 0.000000 0.000000 0.000000 0.000000 0.000000 0.000000 10.000000 
Rear_Toe2_01 0.000000 0.000000 0.000000 0.000000 0.000000 0.000000 10.000000 
Rear_Toe3_01 0.000000 0.000000 0.000000 0.000000 0.000000 0.000000 10.000000 
planeLockWeightCenter 0.000000 0.000000 0.000000 0.000000 0.000000 0.000000 10.000000 
Rear_Toe1_02 0.000000 0.000000 0.000000 0.000000 0.000000 0.000000 10.000000 
Rear_Toe1_03 0.000000 0.000000 0.000000 0.000000 0.000000 0.000000 10.000000 
Rear_Toe2_02 0.000000 0.000000 0.000000 0.000000 0.000000 0.000000 10.000000 
Rear_Toe2_03 0.000000 0.000000 0.000000 0.000000 0.000000 0.000000 10.000000 
Rear_Toe3_02 0.000000 0.000000 0.000000 0.000000 0.000000 0.000000 10.000000 
Rear_Toe3_03 0.000000 0.000000 0.000000 0.000000 0.000000 0.000000 10.000000 
Back_Bone 0.000000 0.000000 0.000000 0.000000 0.000000 0.000000 10.000000 
Head 0.000000 0.000000 0.000000 0.000000 0.000000 0.000000 10.000000 
Motor_Bone 0.000000 0.000000 0.000000 0.000000 0.000000 0.000000 10.000000 
Ping_Mechanism 0.000000 0.000000 0.000000 0.000000 0.000000 0.000000 10.000000 
BN_LookIK 0.000000 0.000000 0.000000 0.000000 0.000000 0.000000 10.000000 
bottomMouth 0.000000 0.000000 0.000000 0.000000 0.000000 0.000000 10.000000 
L_Mouth01 0.000000 0.000000 0.000000 0.000000 0.000000 0.000000 10.000000 
L_mouthFront 0.000000 0.000000 0.000000 0.000000 0.000000 0.000000 10.000000 
mouthGun 0.000000 0.000000 0.000000 0.000000 0.000000 0.000000 10.000000 
R_Mouth01 0.000000 0.000000 0.000000 0.000000 0.000000 0.000000 10.000000 
R_mouthFront 0.000000 0.000000 0.000000 0.000000 0.000000 0.000000 10.000000 
TopMouth 0.000000 0.000000 0.000000 0.000000 0.000000 0.000000 10.000000 
weapon_bone 0.000000 0.000000 0.000000 0.000000 0.000000 0.000000 10.000000 
#Beginning of Data. Separated by tabs
#Fr	Tx	Ty	Tz	Rx	Ry	Rz	SF
[Pinger_Root]
24 0.000000 0.000000 0.000000 -0.000075 -0.000000 -0.000020 0.000000
25 0.000000 0.000000 0.000000 -0.000075 -0.000000 -0.000020 0.000000
26 0.000000 0.000000 0.000000 -0.000075 -0.000000 -0.000020 0.000000
[Pelvis]
24 72.950508 604.136719 4030.939941 -168.256500 -81.523933 161.338196 4076.613770
25 93.526657 732.104492 4055.515869 -168.870605 -81.475182 162.215576 4122.126953
26 102.125954 825.243896 4091.069336 -168.570862 -81.469841 161.950912 4174.722168
[L_Hip]
24 5.766392 125.831482 872.656799 160.158691 -45.484905 122.312202 881.701050
25 5.766392 125.831482 872.656799 160.158691 -45.484905 122.312202 881.701050
26 5.766392 125.831482 872.656799 160.158691 -45.484913 122.312202 881.701050
[R_Hip]
24 5.765438 125.836372 -872.654907 69.179756 70.642532 149.274139 881.699829
25 5.765438 125.836372 -872.654907 76.572189 71.327301 156.168365 881.699829
26 5.765438 125.836372 -872.654907 80.013885 70.380089 159.461533 881.699829
[Rear_Leg01]
24 -192.298416 -925.602966 -0.001907 166.753937 -1.882352 -140.982117 945.367432
25 -192.298416 -925.602966 -0.001907 166.291763 -2.133122 -139.732773 945.367432
26 -192.298416 -925.602966 -0.001907 166.010269 -2.150170 -139.160706 945.367432
[Spine1]
24 290.604584 5.007505 0.000477 8.422388 4.568962 22.906736 290.647736
25 290.604584 5.007505 0.000477 8.273314 4.753443 23.181721 290.647736
26 290.604584 5.007505 0.000477 8.219436 4.900433 23.033579 290.647736
[L_Leg01]
24 761.932007 -0.002384 -0.069261 35.638546 -17.997381 2.175069 761.932068
25 761.932007 -0.002384 -0.069261 37.164116 -16.395206 0.013458 761.932068
26 761.932007 -0.002384 -0.069261 37.329082 -14.878024 -1.556274 761.932068
[L_Leg02]
24 1441.140503 -0.000954 -0.000715 4.562424 0.186234 -139.210205 1441.140503
25 1441.140503 -0.000954 -0.000715 5.047697 0.397126 -140.820129 1441.140503
26 1441.140503 -0.000954 -0.000715 5.312486 0.537602 -141.600784 1441.140503
[L_Leg03]
24 1686.963989 -0.000715 -0.000954 -0.055684 0.024919 125.052254 1686.963989
25 1686.963989 -0.000715 -0.000954 -0.064020 0.032645 127.248901 1686.963989
26 1686.963989 -0.000715 -0.000954 -0.070255 0.035660 128.520599 1686.963989
[L_Foot]
24 3041.570068 -30.715107 11.297464 -3.051032 15.311203 48.051926 3041.746094
25 3041.570068 -30.715107 11.297464 -3.275760 16.730837 50.033680 3041.746094
26 3041.570068 -30.715107 11.297464 -2.965378 17.333847 51.718002 3041.746094
[L_Toe1_01]
24 -188.216690 -224.732346 -21.137953 93.049393 -13.060275 -173.376221 293.899567
25 -188.216690 -224.732346 -21.137953 93.356888 -11.381776 -173.550766 293.899567
26 -188.216690 -224.732346 -21.137953 93.594994 -9.880252 -173.619263 293.899567
[L_Toe2_01]
24 200.746536 -219.926590 148.838394 -95.232834 -26.294624 -44.795128 332.896027
25 200.746536 -219.926590 148.838394 -93.643646 -26.656895 -47.059746 332.896027
26 200.746536 -219.926590 148.838394 -92.221710 -26.891312 -49.059921 332.896027
[L_Toe3_01]
24 188.832520 -219.859131 -191.078659 -102.066116 17.612223 -61.586205 347.140900
25 188.832520 -219.859131 -191.078659 -101.232445 16.048803 -62.937340 347.140900
26 188.832520 -219.859131 -191.078659 -100.493683 14.859692 -64.192841 347.140900
[planeAlignerLeft]
24 0.812531 -811.448792 -0.314951 0.000000 -90.000000 -90.001900 811.449280
25 0.812531 -811.448792 -0.314951 0.000000 -90.000000 -90.001900 811.449280
26 0.812531 -811.448792 -0.314951 0.000000 -90.000000 -90.001900 811.449280
[L_Toe1_02]
24 413.761139 0.000477 0.000000 0.001388 -25.449818 0.001388 413.761139
25 413.761139 0.000477 0.000000 0.001385 -25.860678 0.001385 413.761139
26 413.761139 0.000477 0.000000 0.001385 -25.894514 0.001385 413.761139
[L_Toe1_03]
24 464.317322 0.000358 -0.000089 0.002977 43.566658 0.002977 464.317322
25 464.317322 0.000358 -0.000089 0.003287 48.158382 0.003287 464.317322
26 464.317322 0.000358 -0.000089 0.003573 51.644119 0.003573 464.317322
[L_Toe2_02]
24 342.235809 -0.000477 0.000238 0.001183 -75.797943 0.001183 342.235809
25 342.235809 -0.000477 0.000238 0.001184 -74.786667 0.001184 342.235809
26 342.235809 -0.000477 0.000238 0.001186 -73.775322 0.001186 342.235809
[L_Toe2_03]
24 420.210846 -0.000715 0.000000 -179.989471 84.628487 -179.985977 420.210846
25 420.210846 -0.000715 0.000000 -179.969254 87.972908 -179.965759 420.210846
26 420.210846 -0.000715 0.000000 -0.063047 88.925163 -0.059551 420.210846
[L_Toe3_02]
24 329.270111 0.000954 0.000000 -0.028140 -83.547577 0.033993 329.270111
25 329.270111 0.000954 0.000000 -0.018676 -82.895988 0.023656 329.270111
26 329.270111 0.000954 0.000000 -0.010874 -82.244370 0.014979 329.270111
[L_Toe3_03]
24 439.137451 -0.001907 0.000954 179.991455 62.526463 179.998657 439.137451
25 439.137451 -0.001907 0.000954 179.990616 66.762627 179.997742 439.137451
26 439.137451 -0.001907 0.000954 -179.998337 70.747749 -179.994781 439.137451
[planeLockWeightLeft]
24 -0.000954 0.000238 -0.000305 -0.011826 -0.004376 0.005620 0.001029
25 -0.000954 0.000238 -0.000305 -0.011826 -0.004376 0.005620 0.001029
26 -0.000954 0.000238 -0.000305 -0.011826 -0.004376 0.005620 0.001029
[R_Leg01]
24 761.455627 -0.001907 -0.000358 100.271515 -21.193083 57.454861 761.455688
25 761.455627 -0.001907 -0.000358 98.700531 -13.830849 59.417995 761.455688
26 761.455627 -0.001907 -0.000358 97.867172 -6.525437 59.648010 761.455688
[R_Leg02]
24 1441.140625 0.000000 -0.000238 -1.156252 0.094195 -101.994217 1441.140625
25 1441.140625 0.000000 -0.000238 -1.269938 0.094373 -93.901329 1441.140625
26 1441.140625 0.000000 -0.000238 -0.929255 0.114406 -84.390343 1441.140625
[R_Leg03]
24 1686.963989 0.000954 0.001431 0.040757 -0.018745 121.449074 1686.963989
25 1686.963989 0.000954 0.001431 0.047188 -0.021330 123.126198 1686.963989
26 1686.963989 0.000954 0.001431 0.049450 -0.025856 123.536362 1686.963989
[R_Foot]
24 3041.560059 -30.531288 -11.204481 -0.808631 -25.699814 42.271900 3041.734131
25 3041.560059 -30.531288 -11.204481 -1.356525 -24.604147 40.528706 3041.734131
26 3041.560059 -30.531288 -11.204481 -1.217404 -24.284815 38.128632 3041.734131
[planeAlignerRight]
24 -0.635147 -812.270569 -0.364304 0.000000 -89.960434 -90.005180 812.270874
25 -0.635147 -812.270569 -0.364304 0.000000 -89.960434 -90.005180 812.270874
26 -0.635147 -812.270569 -0.364304 0.000000 -89.960434 -90.005180 812.270874
[R_Toe1_01]
24 -188.383347 -224.864899 21.052242 78.327164 0.810639 -176.062744 294.101532
25 -188.383347 -224.864899 21.052242 78.327164 0.810639 -176.062744 294.101532
26 -188.383347 -224.864899 21.052242 78.327164 0.810639 -176.062744 294.101532
[R_Toe2_01]
24 200.637817 -220.002121 -148.787384 -86.422035 46.306095 -40.784870 332.857574
25 200.637817 -220.002121 -148.787384 -85.560120 46.414005 -40.777451 332.857574
26 200.637817 -220.002121 -148.787384 -85.243942 46.454605 -40.773235 332.857574
[R_Toe3_01]
24 188.606735 -220.092957 191.126343 -77.777176 -16.659966 -55.221592 347.192566
25 188.606735 -220.092957 191.126343 -77.777176 -16.659966 -55.221592 347.192566
26 188.606735 -220.092957 191.126343 -77.777168 -16.659958 -55.221577 347.192566
[planeLockWeightRight]
24 -0.000477 0.000000 0.000000 -0.011823 -0.004379 -0.000027 0.000477
25 -0.000477 0.000000 0.000000 -0.011823 -0.004379 -0.000027 0.000477
26 -0.000477 0.000000 0.000000 -0.011823 -0.004379 -0.000027 0.000477
[R_Toe1_02]
24 413.762085 0.000477 -0.000119 0.001534 -9.818789 0.001534 413.762085
25 413.762085 0.000477 -0.000119 0.001534 -9.818600 0.001534 413.762085
26 413.762085 0.000477 -0.000119 0.001534 -9.818407 0.001534 413.762085
[R_Toe1_03]
24 464.317810 0.000000 0.001088 0.001388 9.995866 -0.003176 464.317810
25 464.317810 0.000000 0.001088 0.001388 9.995677 -0.003176 464.317810
26 464.317810 0.000000 0.001088 0.001388 9.995484 -0.003176 464.317810
[R_Toe2_02]
24 342.234741 -0.000954 0.000238 -0.002332 -79.833969 -0.002332 342.234741
25 342.234741 -0.000954 0.000238 -0.002332 -79.833969 -0.002332 342.234741
26 342.234741 -0.000954 0.000238 -0.002332 -79.833969 -0.002332 342.234741
[R_Toe2_03]
24 420.210846 0.000715 -0.000268 -179.995636 64.198975 -179.999222 420.210846
25 420.210846 0.000715 -0.000268 -179.995636 64.198975 -179.999222 420.210846
26 420.210846 0.000715 -0.000268 -179.995636 64.198975 -179.999222 420.210846
[R_Toe3_02]
24 329.270355 -0.000477 -0.000954 0.001175 -84.653717 0.001175 329.270355
25 329.270355 -0.000477 -0.000954 0.001175 -84.651665 0.001175 329.270355
26 329.270355 -0.000477 -0.000954 0.001175 -84.649719 0.001175 329.270355
[R_Toe3_03]
24 439.137939 0.000238 0.001431 -179.997650 45.533470 -179.990097 439.137939
25 439.137939 0.000238 0.001431 -179.997650 45.533474 -179.990097 439.137939
26 439.137939 0.000238 0.001431 -179.997650 45.533474 -179.990097 439.137939
[Rear_Leg02]
24 1162.777710 -0.029802 0.005960 -0.989292 1.803838 -119.943970 1162.777710
25 1162.777710 -0.029802 0.005960 -1.049817 2.389281 -114.554024 1162.777710
26 1162.777710 -0.029802 0.005960 -0.925597 2.658114 -109.943497 1162.777710
[Rear_Leg03]
24 607.192505 -0.013351 -0.073195 0.010363 -0.005364 71.087791 607.192505
25 607.192505 -0.013351 -0.073195 0.010438 -0.005219 69.483765 607.192505
26 607.192505 -0.013351 -0.073195 0.010509 -0.005072 67.879738 607.192505
[Rear_Leg04]
24 995.874512 -0.020504 -0.011921 -0.041087 -0.016758 72.983337 995.874573
25 995.874512 -0.020504 -0.011921 -0.040487 -0.018160 69.046234 995.874573
26 995.874512 -0.020504 -0.011921 -0.039927 -0.019361 65.623283 995.874573
[Rear_Foot]
24 3096.176270 -0.067472 -0.041425 116.888321 88.036163 -58.448715 3096.176270
25 3096.176270 -0.067472 -0.041425 117.713425 87.497910 -56.288940 3096.176270
26 3096.176270 -0.067472 -0.041425 118.786690 87.282570 -54.269703 3096.176270
[planeAlignerCenter]
24 0.350077 0.966311 -838.790894 0.000009 0.000003 -179.999985 838.791565
25 0.350077 0.966311 -838.790894 0.000009 0.000003 -179.999985 838.791565
26 0.350077 0.966311 -838.790894 0.000009 0.000003 -179.999985 838.791565
[Rear_Toe1_01]
24 0.653352 83.966492 -371.173737 0.325823 22.833740 91.248177 380.553192
25 0.653352 83.966492 -371.173737 0.312328 22.835142 90.845634 380.553192
26 0.653352 83.966492 -371.173737 0.301483 22.833618 90.712524 380.553192
[Rear_Toe2_01]
24 178.200760 -294.826019 -362.060547 -8.799225 20.712872 -66.564056 499.765686
25 178.200760 -294.826019 -362.060547 -8.794913 20.711077 -66.874031 499.765686
26 178.200760 -294.826019 -362.060547 -8.790588 20.709299 -67.183998 499.765686
[Rear_Toe3_01]
24 -153.359680 -308.780914 -362.060852 4.041329 20.204313 -111.481369 499.952881
25 -153.359680 -308.780914 -362.060852 4.044953 20.202923 -111.789154 499.952881
26 -153.359680 -308.780914 -362.060852 4.048582 20.201548 -112.096947 499.952881
[planeLockWeightCenter]
24 -0.000062 0.000238 0.000000 -0.011814 -0.004373 -0.000015 0.000246
25 -0.000062 0.000238 0.000000 -0.011814 -0.004373 -0.000015 0.000246
26 -0.000062 0.000238 0.000000 -0.011814 -0.004373 -0.000015 0.000246
[Rear_Toe1_02]
24 379.707825 0.194073 0.000477 -0.002640 -33.265305 -0.002640 379.707855
25 379.707825 0.194073 0.000477 -0.002640 -33.264648 -0.002640 379.707855
26 379.707825 0.194073 0.000477 -0.002640 -33.263962 -0.002640 379.707855
[Rear_Toe1_03]
24 500.129700 0.165701 0.000119 -0.009177 83.970581 -0.012679 500.129761
25 500.129700 0.165701 0.000119 -0.009201 83.983925 -0.012703 500.129761
26 500.129700 0.165701 0.000119 -0.009226 83.997131 -0.012727 500.129761
[Rear_Toe2_02]
24 340.494507 0.000238 -0.000954 0.001188 -71.994690 0.001188 340.494507
25 340.494507 0.000238 -0.000954 0.001188 -71.983559 0.001188 340.494507
26 340.494507 0.000238 -0.000954 0.001188 -71.972450 0.001188 340.494507
[Rear_Toe2_03]
24 433.103577 0.000000 0.000238 0.008041 73.214203 0.008041 433.103546
25 433.103577 0.000000 0.000238 0.008028 73.188530 0.008028 433.103546
26 433.103577 0.000000 0.000238 0.008016 73.162872 0.008016 433.103546
[Rear_Toe3_02]
24 340.494141 -0.000358 -0.000477 0.001194 -68.630905 0.001194 340.494171
25 340.494141 -0.000358 -0.000477 0.001194 -68.644104 0.001194 340.494171
26 340.494141 -0.000358 -0.000477 0.001194 -68.657272 0.001194 340.494171
[Rear_Toe3_03]
24 433.103577 0.001431 -0.000238 0.006150 67.996010 0.006150 433.103546
25 433.103577 0.001431 -0.000238 0.006154 68.010925 0.006154 433.103546
26 433.103577 0.001431 -0.000238 0.006158 68.025856 0.006158 433.103546
[Back_Bone]
24 1312.175781 -701.934692 0.000954 -0.818418 5.056551 -84.369781 1488.125488
25 1312.175781 -701.934692 0.000954 -0.669582 4.883179 -84.751656 1488.125488
26 1312.175781 -701.934692 0.000954 -0.454866 4.534830 -85.322418 1488.125488
[Head]
24 1406.159424 809.709290 0.001431 0.397773 0.031903 18.560001 1622.625488
25 1406.159424 809.709290 0.001431 -0.268050 -0.137685 19.613346 1622.625488
26 1406.159424 809.709290 0.001431 -0.545553 -0.198390 20.005758 1622.625488
[Motor_Bone]
24 1158.364380 -417.834747 0.000477 -0.000105 0.000046 -105.985291 1231.419434
25 1158.364380 -417.834747 0.000477 -0.000105 0.000046 -105.985291 1231.419434
26 1158.364380 -417.834747 0.000477 -0.000105 0.000046 -105.985291 1231.419434
[Ping_Mechanism]
24 1218.599487 -430.065399 -39.631409 0.000103 -0.000053 82.120995 1292.869507
25 1219.767944 -430.703949 -39.868530 0.000103 -0.000053 82.120995 1294.190552
26 1220.936401 -431.342438 -40.105652 0.000103 -0.000053 82.120995 1295.511719
[BN_LookIK]
24 193.241119 1380.371704 -0.002861 0.000000 89.965736 -31.038179 1393.832153
25 193.241119 1380.371704 -0.002861 0.000000 89.965736 -31.038179 1393.832153
26 193.241119 1380.371704 -0.002861 0.000000 89.965736 -31.038179 1393.832153
[bottomMouth]
24 -435.092926 615.759399 -0.000954 -0.000022 0.000016 73.527184 753.966492
25 -435.092926 615.759399 -0.000954 -0.000022 0.000016 73.527184 753.966492
26 -435.092926 615.759399 -0.000954 -0.000022 0.000016 73.527184 753.966492
[L_Mouth01]
24 554.440979 7.658243 838.222046 150.204178 23.759130 109.605339 1005.027161
25 554.440979 7.658243 838.222046 150.204178 23.759130 109.605339 1005.027161
26 554.440979 7.658243 838.222046 150.204178 23.759130 109.605339 1005.027161
[L_mouthFront]
24 551.629089 934.514771 339.150421 0.000081 2.804060 79.119301 1136.941284
25 551.629089 934.514771 339.150421 0.000081 2.804060 79.119301 1136.941284
26 551.629089 934.514771 339.150421 0.000081 2.804060 79.119301 1136.941284
[mouthGun]
24 55.332661 1627.420898 0.000000 0.000023 0.000009 -11.038128 1628.361328
25 55.332661 1627.420898 0.000000 0.000023 0.000009 -11.038128 1628.361328
26 55.332661 1627.420898 0.000000 0.000023 0.000009 -11.038128 1628.361328
[R_Mouth01]
24 554.442383 7.659197 -838.223938 29.795891 -23.759109 109.605331 1005.029541
25 554.442383 7.659197 -838.223938 29.795891 -23.759109 109.605331 1005.029541
26 554.442383 7.659197 -838.223938 29.795891 -23.759109 109.605331 1005.029541
[R_mouthFront]
24 551.629089 934.514282 -339.151367 0.000029 -2.803930 79.119133 1136.941162
25 551.629089 934.514282 -339.151367 0.000029 -2.803930 79.119133 1136.941162
26 551.629089 934.514282 -339.151367 0.000029 -2.803930 79.119133 1136.941162
[TopMouth]
24 461.269867 -56.106091 -0.008583 -0.000059 -0.000268 92.025169 464.669525
25 461.269867 -56.106091 -0.008583 -0.000059 -0.000268 92.025169 464.669525
26 461.269867 -56.106091 -0.008583 -0.000059 -0.000268 92.025169 464.669525
[weapon_bone]
24 -987.239868 1448.372803 0.001431 0.000000 89.965736 -31.038221 1752.833740
25 -987.239868 1448.372803 0.001431 0.000000 89.965736 -31.038221 1752.833740
26 -987.239868 1448.372803 0.001431 0.000000 89.965736 -31.038221 1752.833740
